<svg height="463pt" viewBox="-11 0 463 463.952" width="463pt" xmlns="http://www.w3.org/2000/svg"><path d="m.476562 160h48v80h-48zm0 0" fill="#6bd4b8"/><path d="m328.476562 128h-232c-35.347656 0-64 28.652344-64 64v16c0 35.347656 28.652344 64 64 64h80l32-40 32 40h88c35.34375 0 64-28.652344 64-64v-16c0-35.347656-28.65625-64-64-64zm0 0" fill="#50b3c9"/><path d="m255.859375 240-47.382813-59.199219-47.382812 59.199219h-64.617188c-17.671874 0-32-14.328125-32-32v-16c0-17.671875 14.328126-32 32-32h232c17.671876 0 32 14.328125 32 32v16c0 17.671875-14.328124 32-32 32zm0 0" fill="#cdeef6"/><path d="m440.476562 368-48-16v-352h48zm0 0" fill="#50b3c9"/><path d="m392.476562 40h48v80h-48zm0 0" fill="#98ecb7"/><path d="m344.46875 463.953125-31.992188-31.953125 80-80 48 16zm0 0" fill="#98ecb7"/><path d="m392.476562 200h48v80h-48zm0 0" fill="#98ecb7"/><g fill="#cdeef6"><path d="m352.476562 48c0 8.835938-7.164062 16-16 16-8.835937 0-16-7.164062-16-16s7.164063-16 16-16c8.835938 0 16 7.164062 16 16zm0 0"/><path d="m288.476562 24c0 13.253906-10.746093 24-24 24-13.253906 0-24-10.746094-24-24s10.746094-24 24-24c13.253907 0 24 10.746094 24 24zm0 0"/><path d="m304.476562 392c0 8.835938-7.164062 16-16 16-8.835937 0-16-7.164062-16-16s7.164063-16 16-16c8.835938 0 16 7.164062 16 16zm0 0"/></g><path d="m104.476562 96h216v32h-216zm0 0" fill="#6bd4b8"/></svg>